<svg width="96" height="96" viewBox="0 0 96 96" fill="none" xmlns="http://www.w3.org/2000/svg">
  <rect width="96" height="96" rx="22" fill="#2F6B1F"/>
  <circle cx="48" cy="51" r="30" fill="#B8DC4A"/>
  <circle cx="48" cy="51" r="23" fill="#D8EF74"/>
  <path d="M48 29v44M26 51h44M32 35l32 32M64 35 32 67" stroke="#7FB12B" stroke-width="3.5" stroke-linecap="round"/>
  <circle cx="48" cy="51" r="9" fill="#F3F7AA"/>
  <path d="M42 21c10-8 24-6 33 4-10 8-24 6-33-4Z" fill="#77A933"/>
  <path d="M44 22c8 0 18 1 27 3" stroke="#4E7E24" stroke-width="3" stroke-linecap="round"/>
  <path d="M31 26c5-6 12-8 20-6-3 8-10 12-19 11-2-1-2-3-1-5Z" fill="#4F8B2F"/>
  <path d="M33 28c4-2 8-4 14-6" stroke="#2F6B1F" stroke-width="2.5" stroke-linecap="round"/>
  <path d="M25 58c5 14 19 22 33 18" stroke="#F4F9B8" stroke-width="5" stroke-linecap="round" opacity=".55"/>
</svg>
